<?xml version="1.0" encoding="UTF-8" standalone="no"?>
<!-- Created with Inkscape (http://www.inkscape.org/) -->

<svg
   width="200mm"
   height="200mm"
   viewBox="0 0 200 200"
   version="1.1"
   id="svg5"
   xml:space="preserve"
   xmlns:inkscape="http://www.inkscape.org/namespaces/inkscape"
   xmlns:sodipodi="http://sodipodi.sourceforge.net/DTD/sodipodi-0.dtd"
   xmlns="http://www.w3.org/2000/svg"
   xmlns:svg="http://www.w3.org/2000/svg"><sodipodi:namedview
     id="namedview7"
     pagecolor="#ffffff"
     bordercolor="#000000"
     borderopacity="0.25"
     inkscape:showpageshadow="2"
     inkscape:pageopacity="0.0"
     inkscape:pagecheckerboard="0"
     inkscape:deskcolor="#d1d1d1"
     inkscape:document-units="mm"
     showgrid="false" /><defs
     id="defs2"><clipPath
       clipPathUnits="userSpaceOnUse"
       id="clipPath767"><path
         id="path769"
         style="fill:#ff0000;fill-opacity:1;fill-rule:nonzero;stroke:none;stroke-width:0.264583"
         d="M 25.506453,79.930006 V 244.53288 H 135.03672 V 79.930006 Z m 96.158987,68.974084 h 0.002 l -0.003,0.003 c 0.29333,-0.001 0.58781,0.0608 0.87333,0.12919 0.7472,0.17915 1.28537,0.42954 1.86449,0.93276 0.009,0.008 0.018,0.0154 0.0269,0.0232 0.22697,0.0782 0.45802,0.18616 0.79478,0.31677 0.26269,0.32233 0.69886,0.56075 0.78807,0.96687 0.15888,0.72328 0.14494,1.18982 -0.0512,1.56166 0.13203,0.12658 0.2585,0.25788 0.36535,0.40566 0.19715,0.27267 0.31615,0.59538 0.447,0.90537 0.13098,0.31032 0.27383,0.62152 0.33693,0.9524 0.10091,0.52937 0.0511,1.51957 -0.14108,2.02881 -0.1196,0.31687 -0.35141,0.57912 -0.5271,0.86868 -0.34163,0.35952 -1.02963,1.14334 -1.48466,1.38287 -0.29372,0.15462 -0.64318,0.16738 -0.95808,0.27233 -0.31553,0.10515 -0.61141,0.26625 -0.93121,0.3576 -0.97391,0.27824 -1.1325,0.20502 -2.14664,0.20102 -0.74652,-0.0795 -1.32011,-0.0959 -2.03708,-0.35191 -0.11768,-0.042 -0.23102,-0.0954 -0.34469,-0.1478 l 0.003,0.0315 c -0.0412,0.32611 -0.0116,0.0241 -0.0196,0.37466 -0.007,0.31586 -0.0336,0.63168 -0.0677,0.94568 -0.023,0.13159 -0.0714,0.40181 -0.091,0.53381 -0.0141,0.0951 -0.0199,0.19179 -0.0377,0.28629 -0.0189,0.10024 -0.05,0.19806 -0.0718,0.29766 -0.0719,0.32832 -0.0624,0.31403 -0.10491,0.65267 -0.0326,0.11035 -0.0671,0.22031 -0.0977,0.33125 -0.13639,0.49515 -0.2317,1.00439 -0.43564,1.47846 -0.0199,0.0571 -0.0464,0.11247 -0.0594,0.17157 -0.0168,0.0784 -0.01,0.16008 -0.0186,0.23978 -0.002,0.0137 -0.002,0.028 -0.007,0.0408 -0.012,0.0271 -0.0311,0.0132 -0.006,0.0253 -0.003,0.0223 -0.0111,0.0293 0.009,0.0408 0.005,0.003 0.0181,-5.3e-4 0.016,0.004 -0.005,0.0121 -0.01,0.0206 -0.0134,0.0279 0.005,0.003 0.0101,0.008 0.016,0.0171 0.0512,0.003 0.14907,0.0521 0.16536,0.092 0.0955,0.23423 0.26618,0.47557 0.22428,0.72501 -0.0515,0.3063 -0.17126,0.36658 -0.30851,0.36277 -0.0255,0.0281 -0.0624,0.0434 -0.1142,0.03 -0.0283,-0.007 -0.0576,-0.006 -0.0863,-0.005 -0.004,0.008 -0.01,0.0169 -0.0165,0.0253 0.0152,0.003 0.0172,0.0167 0.002,0.0243 l -5.3e-4,5.3e-4 h -5.3e-4 c -0.001,-1.2e-4 -0.002,-5.3e-4 -0.002,-5.3e-4 -10e-4,9e-5 -10e-4,7.9e-4 -0.002,0.001 -0.001,2.6e-4 -0.004,5.2e-4 -0.005,5.2e-4 -0.004,1e-5 -0.007,5.3e-4 -0.0103,0.001 -0.002,2.1e-4 -0.003,5.3e-4 -0.004,5.3e-4 -10e-4,7e-5 -0.003,-5.3e-4 -0.004,-5.3e-4 -0.001,1.2e-4 -0.003,1.8e-4 -0.004,5.3e-4 -0.003,5.3e-4 -0.006,-1.9e-4 -0.009,0 -0.002,1.1e-4 -0.003,8e-4 -0.005,10e-4 -0.002,1.7e-4 -0.003,-10e-5 -0.005,0 -0.002,3e-5 -0.003,2e-4 -0.005,5.3e-4 -0.002,1.5e-4 -0.003,2e-5 -0.005,5.3e-4 -0.002,-1.6e-4 -0.003,-5.3e-4 -0.005,-5.3e-4 -0.002,10e-6 -0.003,5.3e-4 -0.005,5.3e-4 -0.003,1.9e-4 -0.006,-2e-4 -0.009,0 -5.3e-4,5e-5 -0.001,5.3e-4 -0.002,5.3e-4 1.5e-4,8e-5 -0.002,1.6e-4 -0.008,5.3e-4 -0.003,-1.6e-4 -0.007,7e-5 -0.0104,0 -0.002,-3e-5 -0.003,1e-5 -0.005,0 -0.002,-1e-5 -0.004,-1.1e-4 -0.006,0 -0.002,1.2e-4 -0.004,9e-5 -0.006,5.3e-4 -0.002,1.3e-4 -0.004,5.3e-4 -0.006,5.3e-4 -0.003,-9e-5 -0.005,-5.3e-4 -0.007,-5.3e-4 -0.002,4e-5 -0.005,5.3e-4 -0.007,5.3e-4 -0.002,8e-5 -0.005,-1e-5 -0.007,0 -0.004,1e-5 -0.0115,6e-5 -0.0155,0 -0.002,-3e-5 -0.005,1e-4 -0.008,0 -0.006,-1.8e-4 -0.0121,5.2e-4 -0.0181,5.2e-4 -0.003,-4e-5 -0.007,-1.5e-4 -0.0104,-5.2e-4 -0.004,-9e-5 -0.007,-5.3e-4 -0.0108,-5.3e-4 -0.0186,0 -0.004,0.002 -0.0228,-5.3e-4 -0.004,4e-5 -0.007,7e-5 -0.0114,0 -0.004,-7e-5 -0.008,-5.3e-4 -0.0119,-5.3e-4 -2.7e-4,-1e-5 -0.0228,0 -0.0233,0 -0.007,0 -0.0152,4e-5 -0.0222,0 -0.0117,5.3e-4 -0.01,5.3e-4 -0.0217,0 -0.004,-1.2e-4 -0.007,-5.3e-4 -0.0109,-5.3e-4 0,0 -0.0205,10e-4 -0.0207,10e-4 -0.003,1e-4 -0.007,0 -0.0104,0 -0.0156,-2.6e-4 -0.005,-2.2e-4 -0.0191,5.3e-4 -0.003,2.6e-4 -0.006,10e-4 -0.009,10e-4 -0.003,1e-4 -0.006,-1.4e-4 -0.009,0 -0.003,1.4e-4 -0.006,5.3e-4 -0.009,5.3e-4 -0.003,-4e-5 -0.007,-2.6e-4 -0.0108,-5.3e-4 -0.0186,0.002 -0.003,2.7e-4 -0.0217,5.3e-4 -0.004,4e-5 -0.007,-2.6e-4 -0.0119,0 -0.004,1.2e-4 -0.007,8e-4 -0.0104,0.001 -0.004,1e-4 -0.006,6e-5 -0.0108,0 -0.003,-8e-5 -0.007,-3e-5 -0.0104,0 -0.003,1e-5 -0.007,-3e-5 -0.0103,0 -0.003,1e-4 -0.007,-3e-5 -0.0103,0 -0.003,1e-5 -0.007,0 -0.0103,0 -0.003,-1e-5 -0.007,-8e-5 -0.0114,0 -0.009,1.8e-4 -0.0107,2e-4 -0.0207,5.3e-4 -0.004,0 -0.008,9e-5 -0.0119,0 -0.004,-9e-5 -0.008,-5.3e-4 -0.0124,-5.3e-4 -0.004,-8e-5 -0.008,1.5e-4 -0.0124,0 -0.003,-1.2e-4 -0.006,-7.9e-4 -0.009,-0.001 -2.6e-4,-4e-5 -7.9e-4,2e-5 -0.001,0 -5.3e-4,1.2e-4 -5.3e-4,5.3e-4 -0.002,5.3e-4 l -5.3e-4,-5.3e-4 c -0.002,-2.6e-4 -0.004,-5.3e-4 -0.006,-5.3e-4 -0.002,-9e-5 -0.004,5.3e-4 -0.006,5.3e-4 -0.003,1e-5 -0.005,-5.3e-4 -0.007,-5.3e-4 -0.002,-1e-5 -0.005,1.2e-4 -0.007,0 -0.004,-1.8e-4 -0.006,1.4e-4 -0.007,0 2.5e-4,-1e-4 7.9e-4,-5.2e-4 -0.008,0 -0.003,-2.3e-4 -0.005,-10e-4 -0.008,-10e-4 -0.003,-8e-5 -0.005,10e-4 -0.008,10e-4 -0.005,8e-5 -0.0121,3e-5 -0.0171,0 -0.0146,-5e-5 -0.004,-2.3e-4 -0.0186,-10e-4 -0.0143,0 -0.0285,-0.002 -0.0429,-0.002 -0.0106,-1.3e-4 -0.0166,5.3e-4 -0.0274,0.001 -0.005,-9e-5 -0.0105,-8e-4 -0.0155,-0.001 -0.006,-2.6e-4 -0.0112,-7e-5 -0.0171,-5.3e-4 -0.0115,-2.6e-4 -0.0252,-0.001 -0.0367,-0.001 -0.006,4e-5 -0.0126,2.1e-4 -0.0186,5.3e-4 -0.006,1.8e-4 -0.0131,2e-4 -0.0191,5.3e-4 -0.006,-5e-5 -0.0126,-0.001 -0.0186,-0.001 -0.006,-9e-5 -0.0126,7.9e-4 -0.0186,0.001 -0.006,1.8e-4 -0.0131,2e-5 -0.0191,0 -0.0174,-8e-5 -0.0212,-5.3e-4 -0.0388,-5.3e-4 -0.007,8e-5 -0.0121,2e-4 -0.0191,5.3e-4 -0.007,2.6e-4 -0.0136,7.9e-4 -0.0207,0.001 -0.007,1.9e-4 -0.0122,-9e-5 -0.0191,0 -0.007,1.2e-4 -0.0142,1.7e-4 -0.0212,5.3e-4 -0.007,2.1e-4 -0.0142,7.9e-4 -0.0212,0.001 -0.007,1.7e-4 -0.0137,-1.1e-4 -0.0207,0 -0.007,1.1e-4 -0.0128,1.6e-4 -0.0196,5.2e-4 -0.007,0.001 -0.0136,0.002 -0.0207,0.002 -0.007,2.6e-4 -0.0128,-8e-5 -0.0196,0 -0.015,1.5e-4 -0.0299,5.3e-4 -0.045,0.001 h -5.3e-4 c -5.3e-4,2.4e-4 -0.002,5.3e-4 -0.003,5.3e-4 -0.003,1.2e-4 -0.006,-5.3e-4 -0.009,-5.3e-4 -0.003,-8e-5 -0.0111,-6e-5 -0.0139,0 -0.003,-2.3e-4 -0.005,-5.3e-4 -0.008,-5.3e-4 -0.003,-4e-5 -0.006,9e-5 -0.009,0 -0.003,-10e-6 -0.006,-1.9e-4 -0.009,-5.3e-4 -0.003,-1.3e-4 -0.006,1.3e-4 -0.009,0 -0.017,-7.9e-4 -0.002,-5.3e-4 -0.0186,-5.3e-4 -0.003,1.3e-4 -0.007,5.3e-4 -0.0108,5.3e-4 -0.004,-3e-5 -0.006,-5.3e-4 -0.0103,-5.3e-4 -0.004,-6e-5 -0.007,4e-5 -0.0103,0 -0.004,-4e-5 -0.007,-5.3e-4 -0.0114,-5.3e-4 -0.007,-4e-5 -0.0147,5.3e-4 -0.0217,5.3e-4 -0.004,2.2e-4 -0.006,1e-4 -0.0103,5.3e-4 -0.004,1.5e-4 -0.007,2.2e-4 -0.0114,5.3e-4 -0.0107,0.001 -0.0114,2.7e-4 -0.0222,0.002 -0.008,7.9e-4 -0.0112,5.3e-4 -0.0124,5.3e-4 0.002,-1.8e-4 0.003,-8e-4 -0.0103,5.3e-4 -0.0201,0.004 -0.003,-5.3e-4 -0.0238,0.004 -0.005,10e-4 -0.009,10e-4 -0.0129,0.002 -0.004,0.001 -0.008,0.003 -0.0124,0.004 -0.0168,0.005 -0.008,0.002 -0.0248,0.007 -0.008,0.002 -0.0159,0.004 -0.0238,0.007 -0.004,0.001 -0.007,0.003 -0.0108,0.005 -0.002,0.001 -0.005,0.002 -0.007,0.003 h -5.2e-4 l -5.3e-4,5.3e-4 c 0,0.001 -0.001,0.002 -0.002,0.003 -0.001,2.6e-4 -0.002,2.7e-4 -0.003,10e-4 -0.001,0.001 -5.3e-4,0.002 -0.002,0.003 -10e-4,0.001 -0.002,0.001 -0.003,0.002 l -0.003,0.003 c -10e-4,0.001 -0.003,0.005 -0.004,0.006 l -0.003,0.003 c -0.001,0.001 -5.3e-4,0.003 -0.002,0.004 -10e-4,0.002 -0.002,0.003 -0.003,0.004 -2.6e-4,5.3e-4 -5.3e-4,0.002 -0.003,0.004 -10e-4,0.003 -0.002,0.006 -0.004,0.009 -0.001,0.001 -0.002,0.003 -0.003,0.004 -0.001,0.002 -2.6e-4,0.004 -0.002,0.005 -10e-4,0.001 -5.2e-4,0.003 -0.002,0.004 -0.001,0.001 -0.001,0.003 -0.002,0.004 -0.001,0.004 -0.003,0.006 -0.005,0.0103 -10e-4,0.001 -0.002,0.002 -0.002,0.003 -0.001,10e-4 -0.002,0.002 -0.002,0.003 -2.6e-4,0.002 10e-6,0.003 -5.3e-4,0.004 -0.003,0.005 -0.006,0.0105 -0.008,0.0165 -0.006,0.0145 -0.0239,0.009 -0.0243,-0.004 -8e-4,0.002 -0.001,0.002 -0.004,0.008 -0.003,0.008 -0.007,0.0148 -0.0103,0.0238 -0.002,0.004 -0.003,0.007 -0.004,0.0114 -0.005,0.0168 -0.0292,0.007 -0.0233,-0.009 0.008,-0.0225 -5.3e-4,0.002 0.009,-0.0217 0.002,-0.004 0.003,-0.009 0.005,-0.0139 0.003,-0.007 0.0115,-0.0209 0.0145,-0.0279 0.002,-0.003 0.014,-0.0239 0.016,-0.0269 0.007,-0.01 0.0127,-0.0142 0.0207,-0.0222 l 0.002,-0.002 c -0.002,8e-4 -0.004,0.001 -0.007,0.002 -0.0115,0.003 -0.002,1.3e-4 -0.0129,0.002 -0.003,0.001 -0.005,0.002 -0.007,0.002 -0.003,1.9e-4 -0.005,2.4e-4 -0.008,5.3e-4 -0.003,2.6e-4 -0.005,8e-4 -0.008,0.001 -0.0113,10e-4 -0.0266,-8e-5 -0.0346,-0.009 -0.004,-0.004 -0.005,-0.0115 -0.008,-0.0165 -1.4e-4,-0.004 -0.001,-0.009 -5.3e-4,-0.0129 10e-4,-0.003 0.003,-0.005 0.004,-0.008 0.005,-0.0103 0.0102,-0.0168 0.0202,-0.0228 0.003,-0.002 0.008,-0.007 0.0124,-0.008 0.002,-5.3e-4 0.005,-5.3e-4 0.007,-0.001 0.002,0 0.005,-5.3e-4 0.007,-0.002 0.004,-0.002 0.005,-0.003 0.006,-0.003 -2.1e-4,-4e-5 0.002,-8e-4 0.006,-0.002 -0.007,-0.007 -0.0116,-0.0159 -0.0119,-0.0258 -1.9e-4,-0.008 0.006,-0.0168 0.0103,-0.0238 0.002,-0.002 0.005,-0.004 0.007,-0.006 0.003,-0.002 0.005,-0.005 0.008,-0.007 0.004,-0.003 0.007,-0.004 0.0103,-0.005 -0.019,-0.0185 -0.0219,-0.031 -0.0171,-0.0563 0.001,-0.005 0.005,-0.0105 0.007,-0.0155 0,-0.002 5.3e-4,-0.005 0.002,-0.007 0.004,-0.009 0.004,-0.006 0.004,-0.004 2.6e-4,-0.001 5.3e-4,-0.003 0.003,-0.008 10e-4,-0.004 10e-4,-0.005 0.002,-0.006 -9e-5,-8e-4 -5.3e-4,-0.003 5.3e-4,-0.008 0,-10e-4 0.001,-10e-4 0.002,-0.002 0.002,-0.004 0.003,-0.008 0.005,-0.0114 -8e-4,-2.7e-4 -0.001,-5.3e-4 -0.002,-0.002 -0.0171,-0.0129 -0.0319,-0.0416 -0.0289,-0.062 0.003,-0.0241 0.0216,-0.035 0.0382,-0.0465 0.01,0.002 0.0142,-0.008 0.0222,-0.0103 0.003,-8e-4 0.007,0.001 0.0114,0 0.004,-0.001 0.006,-0.005 0.009,-0.006 0.004,-0.001 0.008,-0.002 0.0114,-0.002 10e-4,10e-6 0.002,5.3e-4 0.004,5.3e-4 -0.0826,-0.0334 -0.16775,-0.0701 -0.23823,-0.10025 -0.21102,-0.18306 -0.31575,-0.24328 -0.45941,-0.49248 -0.0231,-0.0394 -0.0143,-0.0901 -0.0269,-0.13384 -0.015,-0.0519 -0.0503,-0.0987 -0.0553,-0.15245 -0.011,-0.11467 0.0461,-0.22851 0.0357,-0.34365 0.007,-0.0339 0.0162,-0.0675 0.0212,-0.1018 0.005,-0.0369 -8e-4,-0.0754 0.008,-0.11162 0.01,-0.0389 0.0375,-0.0714 0.0476,-0.11007 0.011,-0.0411 0.005,-0.0852 0.0145,-0.12661 0.087,-0.39075 0.003,0.15169 0.0589,-0.25063 0.092,-0.20243 0.0267,-0.0405 0.0879,-0.2465 0.0529,-0.17804 0.11257,-0.35572 0.13797,-0.54053 0.04,-0.11988 0.0558,-0.17232 0.10232,-0.29197 0.0188,-0.0484 0.0458,-0.0941 0.0594,-0.14418 0.014,-0.0519 0.008,-0.10798 0.0227,-0.15968 0.1452,-0.51299 0.003,0.20702 0.10335,-0.35605 0.18363,-0.4508 -0.02,0.0912 0.10232,-0.37672 0.0176,-0.0675 0.0568,-0.12815 0.0739,-0.19586 0.0176,-0.0697 0.009,-0.14484 0.0284,-0.21394 0.0129,-0.0447 0.034,-0.0865 0.0563,-0.12764 0.0236,-0.1061 0.0487,-0.21224 0.0703,-0.31057 0.0246,-0.11226 0.0443,-0.22522 0.0713,-0.33693 0.0263,-0.10886 0.059,-0.21645 0.0884,-0.32453 0.0383,-0.10258 0.0818,-0.20308 0.11472,-0.30747 0.14726,-0.46667 0.001,-0.15848 0.19689,-0.60979 0.2037,-0.4698 0.0718,-0.13366 0.28112,-0.52296 0.0283,-0.11955 0.0259,-0.0244 0.0434,-0.15762 0.003,-0.0268 -0.005,-0.0552 0.003,-0.0811 0.008,-0.0283 0.0379,-0.048 0.0429,-0.077 0.004,-0.0216 -0.0116,-0.0429 -0.0176,-0.0641 0.003,-0.0196 0.009,-0.048 0.0129,-0.0775 -0.36074,-0.35783 -0.65131,-0.77239 -0.90433,-1.27744 -0.19369,-0.74017 -0.4756,-1.74194 -0.4501,-2.50786 0.0159,-0.47812 0.2155,-1.23222 0.41547,-1.66708 0.0839,-0.18242 0.19553,-0.35058 0.30438,-0.51986 0.0413,-0.22758 0.1832,-1.0175 0.23099,-1.14464 0.0745,-0.19822 0.19044,-0.37883 0.30231,-0.55862 0.13391,-0.21522 0.26333,-0.43745 0.43408,-0.62477 0.48778,-0.53515 0.76255,-0.62243 1.38338,-0.96893 0.27607,-0.0838 0.54105,-0.21984 0.82786,-0.25115 0.27883,-0.0304 0.56375,0.0117 0.8387,0.0677 0.078,-0.0206 0.15569,-0.0427 0.231,-0.0687 0.30667,-0.0855 0.60223,-0.23462 0.91984,-0.25632 0.0418,-0.003 0.0837,-0.004 0.12557,-0.004 z m -4.331,16.30546 c -0.004,0.0147 -0.0109,0.0281 -0.0186,0.0403 0.001,2e-5 0.006,7.9e-4 0.006,5.3e-4 0.0115,-0.008 0.008,-0.0272 0.0124,-0.0408 z m -1.37304,1.19218 c -0.002,6e-5 -0.005,2.5e-4 -0.008,5.3e-4 -0.001,2e-4 -0.002,2.4e-4 -0.003,5.3e-4 0.003,1.4e-4 0.006,2.6e-4 0.009,0 0.002,0 0.004,-2.7e-4 0.006,-0.001 -8e-4,5e-5 -0.002,-6e-5 -0.004,0 z m -0.0429,0.005 c 5.3e-4,5e-5 7.9e-4,5.3e-4 0.001,5.3e-4 7.9e-4,0 0.001,-5.3e-4 0.002,-5.3e-4 -10e-4,0 -0.002,-8e-5 -0.003,0 z m -0.11421,0.0961 c -1.2e-4,5.3e-4 -2.5e-4,0.001 -5.3e-4,0.002 h 5.3e-4 c 1e-4,-5.3e-4 -5e-5,-0.001 0,-0.002 z m -5.3e-4,0.002 c 0,5.2e-4 -7.9e-4,1e-5 -10e-4,5.2e-4 l 5.3e-4,5.3e-4 c 1.9e-4,-5.3e-4 2.5e-4,-7.9e-4 5.3e-4,-10e-4 z" /></clipPath><clipPath
       clipPathUnits="userSpaceOnUse"
       id="clipPath767-5"><path
         id="path769-3"
         style="fill:#ff0000;fill-opacity:1;fill-rule:nonzero;stroke:none;stroke-width:0.264583"
         d="M 25.506453,79.930006 V 244.53288 H 135.03672 V 79.930006 Z m 96.158987,68.974084 h 0.002 l -0.003,0.003 c 0.29333,-0.001 0.58781,0.0608 0.87333,0.12919 0.7472,0.17915 1.28537,0.42954 1.86449,0.93276 0.009,0.008 0.018,0.0154 0.0269,0.0232 0.22697,0.0782 0.45802,0.18616 0.79478,0.31677 0.26269,0.32233 0.69886,0.56075 0.78807,0.96687 0.15888,0.72328 0.14494,1.18982 -0.0512,1.56166 0.13203,0.12658 0.2585,0.25788 0.36535,0.40566 0.19715,0.27267 0.31615,0.59538 0.447,0.90537 0.13098,0.31032 0.27383,0.62152 0.33693,0.9524 0.10091,0.52937 0.0511,1.51957 -0.14108,2.02881 -0.1196,0.31687 -0.35141,0.57912 -0.5271,0.86868 -0.34163,0.35952 -1.02963,1.14334 -1.48466,1.38287 -0.29372,0.15462 -0.64318,0.16738 -0.95808,0.27233 -0.31553,0.10515 -0.61141,0.26625 -0.93121,0.3576 -0.97391,0.27824 -1.1325,0.20502 -2.14664,0.20102 -0.74652,-0.0795 -1.32011,-0.0959 -2.03708,-0.35191 -0.11768,-0.042 -0.23102,-0.0954 -0.34469,-0.1478 l 0.003,0.0315 c -0.0412,0.32611 -0.0116,0.0241 -0.0196,0.37466 -0.007,0.31586 -0.0336,0.63168 -0.0677,0.94568 -0.023,0.13159 -0.0714,0.40181 -0.091,0.53381 -0.0141,0.0951 -0.0199,0.19179 -0.0377,0.28629 -0.0189,0.10024 -0.05,0.19806 -0.0718,0.29766 -0.0719,0.32832 -0.0624,0.31403 -0.10491,0.65267 -0.0326,0.11035 -0.0671,0.22031 -0.0977,0.33125 -0.13639,0.49515 -0.2317,1.00439 -0.43564,1.47846 -0.0199,0.0571 -0.0464,0.11247 -0.0594,0.17157 -0.0168,0.0784 -0.01,0.16008 -0.0186,0.23978 -0.002,0.0137 -0.002,0.028 -0.007,0.0408 -0.012,0.0271 -0.0311,0.0132 -0.006,0.0253 -0.003,0.0223 -0.0111,0.0293 0.009,0.0408 0.005,0.003 0.0181,-5.3e-4 0.016,0.004 -0.005,0.0121 -0.01,0.0206 -0.0134,0.0279 0.005,0.003 0.0101,0.008 0.016,0.0171 0.0512,0.003 0.14907,0.0521 0.16536,0.092 0.0955,0.23423 0.26618,0.47557 0.22428,0.72501 -0.0515,0.3063 -0.17126,0.36658 -0.30851,0.36277 -0.0255,0.0281 -0.0624,0.0434 -0.1142,0.03 -0.0283,-0.007 -0.0576,-0.006 -0.0863,-0.005 -0.004,0.008 -0.01,0.0169 -0.0165,0.0253 0.0152,0.003 0.0172,0.0167 0.002,0.0243 l -5.3e-4,5.3e-4 h -5.3e-4 c -0.001,-1.2e-4 -0.002,-5.3e-4 -0.002,-5.3e-4 -10e-4,9e-5 -10e-4,7.9e-4 -0.002,0.001 -0.001,2.6e-4 -0.004,5.2e-4 -0.005,5.2e-4 -0.004,1e-5 -0.007,5.3e-4 -0.0103,0.001 -0.002,2.1e-4 -0.003,5.3e-4 -0.004,5.3e-4 -10e-4,7e-5 -0.003,-5.3e-4 -0.004,-5.3e-4 -0.001,1.2e-4 -0.003,1.8e-4 -0.004,5.3e-4 -0.003,5.3e-4 -0.006,-1.9e-4 -0.009,0 -0.002,1.1e-4 -0.003,8e-4 -0.005,10e-4 -0.002,1.7e-4 -0.003,-10e-5 -0.005,0 -0.002,3e-5 -0.003,2e-4 -0.005,5.3e-4 -0.002,1.5e-4 -0.003,2e-5 -0.005,5.3e-4 -0.002,-1.6e-4 -0.003,-5.3e-4 -0.005,-5.3e-4 -0.002,10e-6 -0.003,5.3e-4 -0.005,5.3e-4 -0.003,1.9e-4 -0.006,-2e-4 -0.009,0 -5.3e-4,5e-5 -0.001,5.3e-4 -0.002,5.3e-4 1.5e-4,8e-5 -0.002,1.6e-4 -0.008,5.3e-4 -0.003,-1.6e-4 -0.007,7e-5 -0.0104,0 -0.002,-3e-5 -0.003,1e-5 -0.005,0 -0.002,-1e-5 -0.004,-1.1e-4 -0.006,0 -0.002,1.2e-4 -0.004,9e-5 -0.006,5.3e-4 -0.002,1.3e-4 -0.004,5.3e-4 -0.006,5.3e-4 -0.003,-9e-5 -0.005,-5.3e-4 -0.007,-5.3e-4 -0.002,4e-5 -0.005,5.3e-4 -0.007,5.3e-4 -0.002,8e-5 -0.005,-1e-5 -0.007,0 -0.004,1e-5 -0.0115,6e-5 -0.0155,0 -0.002,-3e-5 -0.005,1e-4 -0.008,0 -0.006,-1.8e-4 -0.0121,5.2e-4 -0.0181,5.2e-4 -0.003,-4e-5 -0.007,-1.5e-4 -0.0104,-5.2e-4 -0.004,-9e-5 -0.007,-5.3e-4 -0.0108,-5.3e-4 -0.0186,0 -0.004,0.002 -0.0228,-5.3e-4 -0.004,4e-5 -0.007,7e-5 -0.0114,0 -0.004,-7e-5 -0.008,-5.3e-4 -0.0119,-5.3e-4 -2.7e-4,-1e-5 -0.0228,0 -0.0233,0 -0.007,0 -0.0152,4e-5 -0.0222,0 -0.0117,5.3e-4 -0.01,5.3e-4 -0.0217,0 -0.004,-1.2e-4 -0.007,-5.3e-4 -0.0109,-5.3e-4 0,0 -0.0205,10e-4 -0.0207,10e-4 -0.003,1e-4 -0.007,0 -0.0104,0 -0.0156,-2.6e-4 -0.005,-2.2e-4 -0.0191,5.3e-4 -0.003,2.6e-4 -0.006,10e-4 -0.009,10e-4 -0.003,1e-4 -0.006,-1.4e-4 -0.009,0 -0.003,1.4e-4 -0.006,5.3e-4 -0.009,5.3e-4 -0.003,-4e-5 -0.007,-2.6e-4 -0.0108,-5.3e-4 -0.0186,0.002 -0.003,2.7e-4 -0.0217,5.3e-4 -0.004,4e-5 -0.007,-2.6e-4 -0.0119,0 -0.004,1.2e-4 -0.007,8e-4 -0.0104,0.001 -0.004,1e-4 -0.006,6e-5 -0.0108,0 -0.003,-8e-5 -0.007,-3e-5 -0.0104,0 -0.003,1e-5 -0.007,-3e-5 -0.0103,0 -0.003,1e-4 -0.007,-3e-5 -0.0103,0 -0.003,1e-5 -0.007,0 -0.0103,0 -0.003,-1e-5 -0.007,-8e-5 -0.0114,0 -0.009,1.8e-4 -0.0107,2e-4 -0.0207,5.3e-4 -0.004,0 -0.008,9e-5 -0.0119,0 -0.004,-9e-5 -0.008,-5.3e-4 -0.0124,-5.3e-4 -0.004,-8e-5 -0.008,1.5e-4 -0.0124,0 -0.003,-1.2e-4 -0.006,-7.9e-4 -0.009,-0.001 -2.6e-4,-4e-5 -7.9e-4,2e-5 -0.001,0 -5.3e-4,1.2e-4 -5.3e-4,5.3e-4 -0.002,5.3e-4 l -5.3e-4,-5.3e-4 c -0.002,-2.6e-4 -0.004,-5.3e-4 -0.006,-5.3e-4 -0.002,-9e-5 -0.004,5.3e-4 -0.006,5.3e-4 -0.003,1e-5 -0.005,-5.3e-4 -0.007,-5.3e-4 -0.002,-1e-5 -0.005,1.2e-4 -0.007,0 -0.004,-1.8e-4 -0.006,1.4e-4 -0.007,0 2.5e-4,-1e-4 7.9e-4,-5.2e-4 -0.008,0 -0.003,-2.3e-4 -0.005,-10e-4 -0.008,-10e-4 -0.003,-8e-5 -0.005,10e-4 -0.008,10e-4 -0.005,8e-5 -0.0121,3e-5 -0.0171,0 -0.0146,-5e-5 -0.004,-2.3e-4 -0.0186,-10e-4 -0.0143,0 -0.0285,-0.002 -0.0429,-0.002 -0.0106,-1.3e-4 -0.0166,5.3e-4 -0.0274,0.001 -0.005,-9e-5 -0.0105,-8e-4 -0.0155,-0.001 -0.006,-2.6e-4 -0.0112,-7e-5 -0.0171,-5.3e-4 -0.0115,-2.6e-4 -0.0252,-0.001 -0.0367,-0.001 -0.006,4e-5 -0.0126,2.1e-4 -0.0186,5.3e-4 -0.006,1.8e-4 -0.0131,2e-4 -0.0191,5.3e-4 -0.006,-5e-5 -0.0126,-0.001 -0.0186,-0.001 -0.006,-9e-5 -0.0126,7.9e-4 -0.0186,0.001 -0.006,1.8e-4 -0.0131,2e-5 -0.0191,0 -0.0174,-8e-5 -0.0212,-5.3e-4 -0.0388,-5.3e-4 -0.007,8e-5 -0.0121,2e-4 -0.0191,5.3e-4 -0.007,2.6e-4 -0.0136,7.9e-4 -0.0207,0.001 -0.007,1.9e-4 -0.0122,-9e-5 -0.0191,0 -0.007,1.2e-4 -0.0142,1.7e-4 -0.0212,5.3e-4 -0.007,2.1e-4 -0.0142,7.9e-4 -0.0212,0.001 -0.007,1.7e-4 -0.0137,-1.1e-4 -0.0207,0 -0.007,1.1e-4 -0.0128,1.6e-4 -0.0196,5.2e-4 -0.007,0.001 -0.0136,0.002 -0.0207,0.002 -0.007,2.6e-4 -0.0128,-8e-5 -0.0196,0 -0.015,1.5e-4 -0.0299,5.3e-4 -0.045,0.001 h -5.3e-4 c -5.3e-4,2.4e-4 -0.002,5.3e-4 -0.003,5.3e-4 -0.003,1.2e-4 -0.006,-5.3e-4 -0.009,-5.3e-4 -0.003,-8e-5 -0.0111,-6e-5 -0.0139,0 -0.003,-2.3e-4 -0.005,-5.3e-4 -0.008,-5.3e-4 -0.003,-4e-5 -0.006,9e-5 -0.009,0 -0.003,-10e-6 -0.006,-1.9e-4 -0.009,-5.3e-4 -0.003,-1.3e-4 -0.006,1.3e-4 -0.009,0 -0.017,-7.9e-4 -0.002,-5.3e-4 -0.0186,-5.3e-4 -0.003,1.3e-4 -0.007,5.3e-4 -0.0108,5.3e-4 -0.004,-3e-5 -0.006,-5.3e-4 -0.0103,-5.3e-4 -0.004,-6e-5 -0.007,4e-5 -0.0103,0 -0.004,-4e-5 -0.007,-5.3e-4 -0.0114,-5.3e-4 -0.007,-4e-5 -0.0147,5.3e-4 -0.0217,5.3e-4 -0.004,2.2e-4 -0.006,1e-4 -0.0103,5.3e-4 -0.004,1.5e-4 -0.007,2.2e-4 -0.0114,5.3e-4 -0.0107,0.001 -0.0114,2.7e-4 -0.0222,0.002 -0.008,7.9e-4 -0.0112,5.3e-4 -0.0124,5.3e-4 0.002,-1.8e-4 0.003,-8e-4 -0.0103,5.3e-4 -0.0201,0.004 -0.003,-5.3e-4 -0.0238,0.004 -0.005,10e-4 -0.009,10e-4 -0.0129,0.002 -0.004,0.001 -0.008,0.003 -0.0124,0.004 -0.0168,0.005 -0.008,0.002 -0.0248,0.007 -0.008,0.002 -0.0159,0.004 -0.0238,0.007 -0.004,0.001 -0.007,0.003 -0.0108,0.005 -0.002,0.001 -0.005,0.002 -0.007,0.003 h -5.2e-4 l -5.3e-4,5.3e-4 c 0,0.001 -0.001,0.002 -0.002,0.003 -0.001,2.6e-4 -0.002,2.7e-4 -0.003,10e-4 -0.001,0.001 -5.3e-4,0.002 -0.002,0.003 -10e-4,0.001 -0.002,0.001 -0.003,0.002 l -0.003,0.003 c -10e-4,0.001 -0.003,0.005 -0.004,0.006 l -0.003,0.003 c -0.001,0.001 -5.3e-4,0.003 -0.002,0.004 -10e-4,0.002 -0.002,0.003 -0.003,0.004 -2.6e-4,5.3e-4 -5.3e-4,0.002 -0.003,0.004 -10e-4,0.003 -0.002,0.006 -0.004,0.009 -0.001,0.001 -0.002,0.003 -0.003,0.004 -0.001,0.002 -2.6e-4,0.004 -0.002,0.005 -10e-4,0.001 -5.2e-4,0.003 -0.002,0.004 -0.001,0.001 -0.001,0.003 -0.002,0.004 -0.001,0.004 -0.003,0.006 -0.005,0.0103 -10e-4,0.001 -0.002,0.002 -0.002,0.003 -0.001,10e-4 -0.002,0.002 -0.002,0.003 -2.6e-4,0.002 10e-6,0.003 -5.3e-4,0.004 -0.003,0.005 -0.006,0.0105 -0.008,0.0165 -0.006,0.0145 -0.0239,0.009 -0.0243,-0.004 -8e-4,0.002 -0.001,0.002 -0.004,0.008 -0.003,0.008 -0.007,0.0148 -0.0103,0.0238 -0.002,0.004 -0.003,0.007 -0.004,0.0114 -0.005,0.0168 -0.0292,0.007 -0.0233,-0.009 0.008,-0.0225 -5.3e-4,0.002 0.009,-0.0217 0.002,-0.004 0.003,-0.009 0.005,-0.0139 0.003,-0.007 0.0115,-0.0209 0.0145,-0.0279 0.002,-0.003 0.014,-0.0239 0.016,-0.0269 0.007,-0.01 0.0127,-0.0142 0.0207,-0.0222 l 0.002,-0.002 c -0.002,8e-4 -0.004,0.001 -0.007,0.002 -0.0115,0.003 -0.002,1.3e-4 -0.0129,0.002 -0.003,0.001 -0.005,0.002 -0.007,0.002 -0.003,1.9e-4 -0.005,2.4e-4 -0.008,5.3e-4 -0.003,2.6e-4 -0.005,8e-4 -0.008,0.001 -0.0113,10e-4 -0.0266,-8e-5 -0.0346,-0.009 -0.004,-0.004 -0.005,-0.0115 -0.008,-0.0165 -1.4e-4,-0.004 -0.001,-0.009 -5.3e-4,-0.0129 10e-4,-0.003 0.003,-0.005 0.004,-0.008 0.005,-0.0103 0.0102,-0.0168 0.0202,-0.0228 0.003,-0.002 0.008,-0.007 0.0124,-0.008 0.002,-5.3e-4 0.005,-5.3e-4 0.007,-0.001 0.002,0 0.005,-5.3e-4 0.007,-0.002 0.004,-0.002 0.005,-0.003 0.006,-0.003 -2.1e-4,-4e-5 0.002,-8e-4 0.006,-0.002 -0.007,-0.007 -0.0116,-0.0159 -0.0119,-0.0258 -1.9e-4,-0.008 0.006,-0.0168 0.0103,-0.0238 0.002,-0.002 0.005,-0.004 0.007,-0.006 0.003,-0.002 0.005,-0.005 0.008,-0.007 0.004,-0.003 0.007,-0.004 0.0103,-0.005 -0.019,-0.0185 -0.0219,-0.031 -0.0171,-0.0563 0.001,-0.005 0.005,-0.0105 0.007,-0.0155 0,-0.002 5.3e-4,-0.005 0.002,-0.007 0.004,-0.009 0.004,-0.006 0.004,-0.004 2.6e-4,-0.001 5.3e-4,-0.003 0.003,-0.008 10e-4,-0.004 10e-4,-0.005 0.002,-0.006 -9e-5,-8e-4 -5.3e-4,-0.003 5.3e-4,-0.008 0,-10e-4 0.001,-10e-4 0.002,-0.002 0.002,-0.004 0.003,-0.008 0.005,-0.0114 -8e-4,-2.7e-4 -0.001,-5.3e-4 -0.002,-0.002 -0.0171,-0.0129 -0.0319,-0.0416 -0.0289,-0.062 0.003,-0.0241 0.0216,-0.035 0.0382,-0.0465 0.01,0.002 0.0142,-0.008 0.0222,-0.0103 0.003,-8e-4 0.007,0.001 0.0114,0 0.004,-0.001 0.006,-0.005 0.009,-0.006 0.004,-0.001 0.008,-0.002 0.0114,-0.002 10e-4,10e-6 0.002,5.3e-4 0.004,5.3e-4 -0.0826,-0.0334 -0.16775,-0.0701 -0.23823,-0.10025 -0.21102,-0.18306 -0.31575,-0.24328 -0.45941,-0.49248 -0.0231,-0.0394 -0.0143,-0.0901 -0.0269,-0.13384 -0.015,-0.0519 -0.0503,-0.0987 -0.0553,-0.15245 -0.011,-0.11467 0.0461,-0.22851 0.0357,-0.34365 0.007,-0.0339 0.0162,-0.0675 0.0212,-0.1018 0.005,-0.0369 -8e-4,-0.0754 0.008,-0.11162 0.01,-0.0389 0.0375,-0.0714 0.0476,-0.11007 0.011,-0.0411 0.005,-0.0852 0.0145,-0.12661 0.087,-0.39075 0.003,0.15169 0.0589,-0.25063 0.092,-0.20243 0.0267,-0.0405 0.0879,-0.2465 0.0529,-0.17804 0.11257,-0.35572 0.13797,-0.54053 0.04,-0.11988 0.0558,-0.17232 0.10232,-0.29197 0.0188,-0.0484 0.0458,-0.0941 0.0594,-0.14418 0.014,-0.0519 0.008,-0.10798 0.0227,-0.15968 0.1452,-0.51299 0.003,0.20702 0.10335,-0.35605 0.18363,-0.4508 -0.02,0.0912 0.10232,-0.37672 0.0176,-0.0675 0.0568,-0.12815 0.0739,-0.19586 0.0176,-0.0697 0.009,-0.14484 0.0284,-0.21394 0.0129,-0.0447 0.034,-0.0865 0.0563,-0.12764 0.0236,-0.1061 0.0487,-0.21224 0.0703,-0.31057 0.0246,-0.11226 0.0443,-0.22522 0.0713,-0.33693 0.0263,-0.10886 0.059,-0.21645 0.0884,-0.32453 0.0383,-0.10258 0.0818,-0.20308 0.11472,-0.30747 0.14726,-0.46667 0.001,-0.15848 0.19689,-0.60979 0.2037,-0.4698 0.0718,-0.13366 0.28112,-0.52296 0.0283,-0.11955 0.0259,-0.0244 0.0434,-0.15762 0.003,-0.0268 -0.005,-0.0552 0.003,-0.0811 0.008,-0.0283 0.0379,-0.048 0.0429,-0.077 0.004,-0.0216 -0.0116,-0.0429 -0.0176,-0.0641 0.003,-0.0196 0.009,-0.048 0.0129,-0.0775 -0.36074,-0.35783 -0.65131,-0.77239 -0.90433,-1.27744 -0.19369,-0.74017 -0.4756,-1.74194 -0.4501,-2.50786 0.0159,-0.47812 0.2155,-1.23222 0.41547,-1.66708 0.0839,-0.18242 0.19553,-0.35058 0.30438,-0.51986 0.0413,-0.22758 0.1832,-1.0175 0.23099,-1.14464 0.0745,-0.19822 0.19044,-0.37883 0.30231,-0.55862 0.13391,-0.21522 0.26333,-0.43745 0.43408,-0.62477 0.48778,-0.53515 0.76255,-0.62243 1.38338,-0.96893 0.27607,-0.0838 0.54105,-0.21984 0.82786,-0.25115 0.27883,-0.0304 0.56375,0.0117 0.8387,0.0677 0.078,-0.0206 0.15569,-0.0427 0.231,-0.0687 0.30667,-0.0855 0.60223,-0.23462 0.91984,-0.25632 0.0418,-0.003 0.0837,-0.004 0.12557,-0.004 z m -4.331,16.30546 c -0.004,0.0147 -0.0109,0.0281 -0.0186,0.0403 0.001,2e-5 0.006,7.9e-4 0.006,5.3e-4 0.0115,-0.008 0.008,-0.0272 0.0124,-0.0408 z m -1.37304,1.19218 c -0.002,6e-5 -0.005,2.5e-4 -0.008,5.3e-4 -0.001,2e-4 -0.002,2.4e-4 -0.003,5.3e-4 0.003,1.4e-4 0.006,2.6e-4 0.009,0 0.002,0 0.004,-2.7e-4 0.006,-0.001 -8e-4,5e-5 -0.002,-6e-5 -0.004,0 z m -0.0429,0.005 c 5.3e-4,5e-5 7.9e-4,5.3e-4 0.001,5.3e-4 7.9e-4,0 0.001,-5.3e-4 0.002,-5.3e-4 -10e-4,0 -0.002,-8e-5 -0.003,0 z m -0.11421,0.0961 c -1.2e-4,5.3e-4 -2.5e-4,0.001 -5.3e-4,0.002 h 5.3e-4 c 1e-4,-5.3e-4 -5e-5,-0.001 0,-0.002 z m -5.3e-4,0.002 c 0,5.2e-4 -7.9e-4,1e-5 -10e-4,5.2e-4 l 5.3e-4,5.3e-4 c 1.9e-4,-5.3e-4 2.5e-4,-7.9e-4 5.3e-4,-10e-4 z" /></clipPath></defs><g
     inkscape:groupmode="layer"
     id="layer2"
     inkscape:label="Layer 2"
     transform="matrix(0.70394272,0,0,0.79783569,32.14757,-36.877667)"><path
       style="fill:#ffffff;stroke-width:0.264583"
       d="m 120.09714,167.73343 4.56235,9.61672 -1.16296,0.71566 0.89458,1.34187 0.31311,0.98404 0.57476,2.64021 0.15814,1.92931 0.0949,2.11908 v 0.85397 l 1.5814,-0.0633 0.18977,1.32838 -0.0949,0.75907 -0.12651,0.72745 -0.22139,0.91722 -1.2335,-0.0633 -0.43066,3.18744 0.17892,0.3802 0.40256,0.80512 -0.0224,0.64857 -0.44729,0.76039 -0.22364,0.46965 1.85625,-0.0894 0.98404,-0.40257 1.23004,-0.44728 1.20768,-0.17892 1.25241,0.0224 0.93931,0.26837 0.96167,0.53675 0.64857,0.71566 0.46965,0.78276 0.31311,0.78275 0.0894,0.67093 -0.0223,0.98404 -0.26838,1.18532 -0.60384,1.45369 -0.80512,0.89458 -0.80512,0.60384 -1.07349,0.40256 -1.23005,0.29073 -1.05113,0.0895 -0.96167,-0.0671 -0.80512,-0.17892 -0.40256,-0.22364 -0.67093,-0.51438 -0.49202,-0.80512 -0.44729,-0.71567 -0.17892,-0.78275 -0.69329,0.0447 -0.33547,0.38019 -0.42493,0.51438 -0.0671,0.35784 -0.26837,0.55911 -0.35783,0.24601 -0.42493,0.0447 -0.17891,-0.0223 0.0447,0.55911 -0.13418,0.26837 -0.55911,0.17892 h -0.71567 l -0.26837,-0.26837 -0.0447,-0.35784 -0.0224,-0.11182 -5.61348,3.19812 -0.33547,-0.0895 -0.0895,-0.3802 0.0671,-0.38019 0.22364,-0.6933 0.26837,-0.60384 -1.6997,0.73803 -1.09585,0.89458 -1.02877,1.0064 -0.73803,0.29074 -0.89458,0.0223 -1.74442,0.11182 -2.21408,0.0895 -1.58788,0.0447 -1.11822,0.0224 -1.6997,2.16935 -0.82749,0.78276 -0.894575,0.87221 -1.319503,0.49202 -0.827485,-0.13419 -2.191718,-0.51438 -1.833885,-0.71566 -2.214081,-1.09586 -1.878613,-1.23005 -2.504821,-1.61024 -1.297139,-1.25241 -0.223644,-1.67733 0.268375,-0.76039 -1.610241,-1.56551 -1.297138,-1.45369 -1.341869,-1.3866 -1.341866,-2.12462 -0.693299,-1.27478 -0.984038,-1.90098 -1.341866,-2.86265 -0.894577,-2.14698 -0.178917,-0.67094 -0.290737,-0.87221 -0.782757,-0.3131 -1.744427,-0.62621 -1.028766,-0.91694 -1.028766,-0.67094 -2.325902,-1.25241 -2.079895,-0.91694 -0.469654,-0.13419 -0.670933,0.15656 -0.29074,0.9393 -0.134186,1.47606 -1.230045,2.0128 -5.792393,10.08637 -0.738029,0.0447 -0.02236,1.47605 -7.939384,13.08321 -0.424924,0.0895 -0.290737,-0.0671 -0.02236,1.18532 -9.683811,15.11837 -0.635992,0.0806 -0.284652,-0.0316 0.142324,0.74326 -0.04744,0.93303 -1.138611,1.50234 -6.981409,11.35401 -0.369014,0.3802 h -0.223645 l -0.324284,-0.45848 -3.477674,-8.18539 -0.20128,-0.38019 0.02237,-0.77158 0.212463,-0.53674 0.916943,-1.02877 6.298065,-10.69964 0.166047,-0.087 0.308374,0.0395 0.260932,0.0474 0.18977,-0.0712 0.118605,-0.17395 0.03163,-0.35582 -0.04744,-0.37953 -0.01582,-0.17791 0.130466,-0.30047 0.284654,-0.31628 8.444217,-13.73637 0.430514,-0.0503 0.522774,0.0245 -0.02373,-0.88559 0.06326,-0.73535 7.531499,-13.04494 0.320821,-0.19185 0.570293,0.123 0.436108,0.16773 -0.07828,-0.82748 -0.03355,-0.77158 0.357833,-0.82748 7.185912,-12.44636 -1.061702,0.0653 -1.739548,-0.34791 -1.866059,-1.48652 -2.245595,-2.11908 -2.055828,-2.37211 -2.182342,-3.73212 -1.581404,-5.12375 -0.06326,-4.33306 0.221395,-3.0363 0.69582,-3.35258 0.759073,-1.77117 -0.853958,-1.0121 -0.600935,-0.56931 -0.158139,-0.34791 v -0.44279 l 0.442794,-0.44279 0.664188,-0.12652 1.138614,-0.0633 1.232257,-2.3395 2.46009,-2.393 0.626206,-0.46965 0.492016,-1.34187 0.648571,-0.51438 1.230045,0.22365 1.723895,-1.05647 2.277224,-1.13861 1.992572,-0.72745 2.087456,-0.64838 1.834431,-0.17395 2.16123,-0.23602 2.706097,0.0895 3.309941,0.42492 3.198116,0.89458 3.108661,1.18532 1.201473,0.69367 6.599714,-11.43104 0.771665,-0.1763 0.822333,-0.28465 -0.158142,-0.44279 -0.158141,-1.04373 7.784089,-13.48244 h 0.455036 l 0.288131,-0.28813 -0.370107,-0.64104 8.63738,-16.267666 1.07536,-0.221395 0.28465,-0.284655 -0.18977,-0.411165 -0.31628,-0.885587 7.83047,-13.562777 9.02732,1.196182 -8.06517,15.086613 -0.4428,0.379536 -0.69582,0.03163 0.12652,0.347911 0.28465,0.82233 -9.62198,16.665753 -0.53065,0.0181 -0.53767,-0.0949 -0.15814,0.34791 0.37953,0.37954 0.50605,0.64838 -8.450789,14.6372 h -0.737174 l -0.473258,0.27324 0.506577,0.50657 v 1.17194 l -7.509184,13.00629 -0.03581,0.92589 0.316282,0.56931 1.122797,-0.2214 1.059542,0.14233 0.774891,0.44279 0.869772,0.53768 0.996286,0.82233 0.774888,0.91722 0.569307,0.68 0.26884,0.61675 0.126511,0.42698 0.0086,0.95373 -0.346649,0.49202 -0.223644,0.35783 0.346649,0.8834 1.632603,1.47605 0.875523,0.89747 0.727445,1.02791 0.996286,1.20187 1.012109,1.34419 0.52186,0.94885 0.66419,0.25302 2.30885,0.26884 1.24931,0.18977 1.69211,0.45861 1.18605,0.41116 1.86606,0.94885 2.84653,1.78699 1.09117,0.72744 1.32838,1.13862 0.29727,0.0818 0.77158,-6.17259 0.48083,-2.0128 v -0.30192 l -0.1901,-0.7604 -0.39137,-0.51438 -0.24601,-0.99521 0.11182,-1.6997 0.22365,-1.03995 0.27955,-1.23005 0.3802,-0.76039 1.01758,-0.82748 1.45369,-0.71567 0.80512,-0.246 0.98404,-0.0112 0.99521,0.0783 0.92813,0.29074 0.91694,0.5032 0.84985,0.69329 0.32429,0.82749 0.22364,0.86103 0.0671,1.17414 -0.0112,1.3195 -0.26837,0.84985 -0.3802,0.90576 -0.67093,1.07349 -0.48084,0.45847 -0.53674,0.33547 -0.84985,0.1901 -1.39778,0.13419 h -1.14059 l -1.03995,-0.0447 -0.33546,-0.0671 -0.22365,-0.13418 -0.29074,1.03994 -0.25719,1.18532 -0.39138,2.2029 -0.19009,0.99522 -0.0224,1.20768 0.0336,0.52556 0.0671,0.0895 1.14059,-0.0112 0.21246,0.0224 0.11182,0.13418 0.0112,0.55912 v 0.48083 l 1.02877,-0.0559 0.14537,0.0112 z"
       id="path357"
       clip-path="url(#clipPath767)" /><path
       style="fill:#f4eed7;stroke-width:0.264583"
       d="m 120.09714,167.73343 4.56235,9.61672 -1.16296,0.71566 0.89458,1.34187 0.31311,0.98404 0.57476,2.64021 0.15814,1.92931 0.0949,2.11908 v 0.85397 l 1.5814,-0.0633 0.18977,1.32838 -0.0949,0.75907 -0.12651,0.72745 -0.22139,0.91722 -1.2335,-0.0633 -0.43066,3.18744 0.17892,0.3802 0.40256,0.80512 -0.0224,0.64857 -0.44729,0.76039 -0.22364,0.46965 1.85625,-0.0894 0.98404,-0.40257 1.23004,-0.44728 1.20768,-0.17892 1.25241,0.0224 0.93931,0.26837 0.96167,0.53675 0.64857,0.71566 0.46965,0.78276 0.31311,0.78275 0.0894,0.67093 -0.0223,0.98404 -0.26838,1.18532 -0.60384,1.45369 -0.80512,0.89458 -0.80512,0.60384 -1.07349,0.40256 -1.23005,0.29073 -1.05113,0.0895 -0.96167,-0.0671 -0.80512,-0.17892 -0.40256,-0.22364 -0.67093,-0.51438 -0.49202,-0.80512 -0.44729,-0.71567 -0.17892,-0.78275 -0.69329,0.0447 -0.33547,0.38019 -0.42493,0.51438 -0.0671,0.35784 -0.26837,0.55911 -0.35783,0.24601 -0.42493,0.0447 -0.17891,-0.0223 0.0447,0.55911 -0.13418,0.26837 -0.55911,0.17892 h -0.71567 l -0.26837,-0.26837 -0.0447,-0.35784 -0.0224,-0.11182 -5.61348,3.19812 -0.33547,-0.0895 -0.0895,-0.3802 0.0671,-0.38019 0.22364,-0.6933 0.26837,-0.60384 -1.6997,0.73803 -1.09585,0.89458 -1.02877,1.0064 -0.73803,0.29074 -0.89458,0.0223 -1.74442,0.11182 -2.21408,0.0895 -1.58788,0.0447 -1.11822,0.0224 -1.6997,2.16935 -0.82749,0.78276 -0.894575,0.87221 -1.319503,0.49202 -0.827485,-0.13419 -2.191718,-0.51438 -1.833885,-0.71566 -2.214081,-1.09586 -1.878613,-1.23005 -2.504821,-1.61024 -1.297139,-1.25241 -0.223644,-1.67733 0.268375,-0.76039 -1.610241,-1.56551 -1.297138,-1.45369 -1.341869,-1.3866 -1.341866,-2.12462 -0.693299,-1.27478 -0.984038,-1.90098 -1.341866,-2.86265 -0.894577,-2.14698 -0.178917,-0.67094 -0.290737,-0.87221 -0.782757,-0.3131 -1.744427,-0.62621 -1.028766,-0.91694 -1.028766,-0.67094 -2.325902,-1.25241 -2.079895,-0.91694 -0.469654,-0.13419 -0.670933,0.15656 -0.29074,0.9393 -0.134186,1.47606 -1.230045,2.0128 -5.792393,10.08637 -0.738029,0.0447 -0.02236,1.47605 -7.939384,13.08321 -0.424924,0.0895 -0.290737,-0.0671 -0.02236,1.18532 -9.683811,15.11837 -0.635992,0.0806 -0.284652,-0.0316 0.142324,0.74326 -0.04744,0.93303 -1.138611,1.50234 -6.981409,11.35401 -0.369014,0.3802 h -0.223645 l -0.324284,-0.45848 -3.477674,-8.18539 -0.20128,-0.38019 0.02237,-0.77158 0.212463,-0.53674 0.916943,-1.02877 6.298065,-10.69964 0.166047,-0.087 0.308374,0.0395 0.260932,0.0474 0.18977,-0.0712 0.118605,-0.17395 0.03163,-0.35582 -0.04744,-0.37953 -0.01582,-0.17791 0.130466,-0.30047 0.284654,-0.31628 8.444217,-13.73637 0.430514,-0.0503 0.522774,0.0245 -0.02373,-0.88559 0.06326,-0.73535 7.531499,-13.04494 0.320821,-0.19185 0.570293,0.123 0.436108,0.16773 -0.07828,-0.82748 -0.03355,-0.77158 0.357833,-0.82748 7.185912,-12.44636 -1.061702,0.0653 -1.739548,-0.34791 -1.866059,-1.48652 -2.245595,-2.11908 -2.055828,-2.37211 -2.182342,-3.73212 -1.581404,-5.12375 -0.06326,-4.33306 0.221395,-3.0363 0.69582,-3.35258 0.759073,-1.77117 -0.853958,-1.0121 -0.600935,-0.56931 -0.158139,-0.34791 v -0.44279 l 0.442794,-0.44279 0.664188,-0.12652 1.138614,-0.0633 1.232257,-2.3395 2.46009,-2.393 0.626206,-0.46965 0.492016,-1.34187 0.648571,-0.51438 1.230045,0.22365 1.723895,-1.05647 2.277224,-1.13861 1.992572,-0.72745 2.087456,-0.64838 1.834431,-0.17395 2.16123,-0.23602 2.706097,0.0895 3.309941,0.42492 3.198116,0.89458 3.108661,1.18532 1.201473,0.69367 6.599714,-11.43104 0.771665,-0.1763 0.822333,-0.28465 -0.158142,-0.44279 -0.158141,-1.04373 7.784089,-13.48244 h 0.455036 l 0.288131,-0.28813 -0.370107,-0.64104 8.63738,-16.267666 1.07536,-0.221395 0.28465,-0.284655 -0.18977,-0.411165 -0.31628,-0.885587 7.83047,-13.562777 9.02732,1.196182 -8.06517,15.086613 -0.4428,0.379536 -0.69582,0.03163 0.12652,0.347911 0.28465,0.82233 -9.62198,16.665753 -0.53065,0.0181 -0.53767,-0.0949 -0.15814,0.34791 0.37953,0.37954 0.50605,0.64838 -8.450789,14.6372 h -0.737174 l -0.473258,0.27324 0.506577,0.50657 v 1.17194 l -7.509184,13.00629 -0.03581,0.92589 0.316282,0.56931 1.122797,-0.2214 1.059542,0.14233 0.774891,0.44279 0.869772,0.53768 0.996286,0.82233 0.774888,0.91722 0.569307,0.68 0.26884,0.61675 0.126511,0.42698 0.0086,0.95373 -0.346649,0.49202 -0.223644,0.35783 0.346649,0.8834 1.632603,1.47605 0.875523,0.89747 0.727445,1.02791 0.996286,1.20187 1.012109,1.34419 0.52186,0.94885 0.66419,0.25302 2.30885,0.26884 1.24931,0.18977 1.69211,0.45861 1.18605,0.41116 1.86606,0.94885 2.84653,1.78699 1.09117,0.72744 1.32838,1.13862 0.29727,0.0818 0.77158,-6.17259 0.48083,-2.0128 v -0.30192 l -0.1901,-0.7604 -0.39137,-0.51438 -0.24601,-0.99521 0.11182,-1.6997 0.22365,-1.03995 0.27955,-1.23005 0.3802,-0.76039 1.01758,-0.82748 1.45369,-0.71567 0.80512,-0.246 0.98404,-0.0112 0.99521,0.0783 0.92813,0.29074 0.91694,0.5032 0.84985,0.69329 0.32429,0.82749 0.22364,0.86103 0.0671,1.17414 -0.0112,1.3195 -0.26837,0.84985 -0.3802,0.90576 -0.67093,1.07349 -0.48084,0.45847 -0.53674,0.33547 -0.84985,0.1901 -1.39778,0.13419 h -1.14059 l -1.03995,-0.0447 -0.33546,-0.0671 -0.22365,-0.13418 -0.29074,1.03994 -0.25719,1.18532 -0.39138,2.2029 -0.19009,0.99522 -0.0224,1.20768 0.0336,0.52556 0.0671,0.0895 1.14059,-0.0112 0.21246,0.0224 0.11182,0.13418 0.0112,0.55912 v 0.48083 l 1.02877,-0.0559 0.14537,0.0112 z"
       id="path357-1"
       clip-path="url(#clipPath767-5)"
       transform="matrix(1.9255991,0,0,1.3834703,-59.390504,-53.493153)" /></g></svg>
